#!OML:ASF H:\ManfredObstacles\Project 1\Capture day 2\Session 1\male.ASF
:FULLY-SPECIFIED
:DEGREES
623
root 2.72305 15.1714 -26.8716 -166.386 4.33736 -177.929
lowerback 3.74879 1.14566 0.731466
upperback 1.69817 1.61421 0.249585
thorax -0.34671 0.835371 -0.218268
lowerneck -33.3989 0.235659 3.6477
upperneck 37.885 0.76779 -1.55398
head 20.7588 1.17008 -1.0074
rclavicle -4.31114e-015 4.22417e-015
rhumerus -39.4117 13.498 -96.858
rradius 83.9798
rwrist 11.9006
rhand -12.7476 -6.97749
rfingers 7.12502
rthumb 13.3365 -36.5307
lclavicle -4.31114e-015 4.22417e-015
lhumerus -57.7786 -21.9794 93.2173
lradius 88.8521
lwrist -21.7786
lhand -14.6446 10.1534
lfingers 7.12502
lthumb 11.5075 39.8176
rfemur -18.3124 4.8669 25.593
rtibia 48.3197
rfoot -6.80644 -23.2879
rtoes -32.9433
lfemur -33.1944 1.76556 -18.469
ltibia 82.8737
lfoot 8.14225 19.9483
ltoes -7.71228
624
root 2.73758 15.2348 -27.1369 -166.374 4.20237 -177.948
lowerback 3.67041 1.40294 0.721
upperback 1.53241 1.94675 0.0831621
thorax -0.464294 0.997382 -0.396305
lowerneck -33.2822 -0.0902189 3.50838
upperneck 37.9785 0.250607 -1.26807
head 20.7647 1.02035 -0.969085
rclavicle 1.13804e-014 1.2424e-015
rhumerus -38.7858 14.4577 -97.5807
rradius 85.2149
rwrist 12.1023
rhand -12.4731 -6.61139
rfingers 7.12502
rthumb 13.601 -36.1471
lclavicle 1.13804e-014 1.2424e-015
lhumerus -59.2223 -21.9418 93.2169
lradius 89.4386
lwrist -21.9659
lhand -14.9626 10.0569
lfingers 7.12502
lthumb 11.2008 39.7379
rfemur -16.496 5.09214 25.6793
rtibia 46.6316
rfoot -5.43348 -22.9053
rtoes -33.0752
lfemur -34.7623 1.42618 -18.3782
ltibia 82.1488
lfoot 7.59502 20.8159
ltoes -7.81042
625
root 2.75068 15.3048 -27.4098 -166.319 4.00432 -177.926
lowerback 3.49509 1.64833 0.726026
upperback 1.43616 2.26605 -0.0554023
thorax -0.455321 1.15463 -0.549334
lowerneck -33.4191 1.37278 2.20789
upperneck 38.1088 -1.19038 -0.0282969
head 20.8847 -0.67342 -0.934643
rclavicle 2.90723e-015 -1.09332e-015
rhumerus -38.162 15.4215 -98.1529
rradius 86.5034
rwrist 12.1936
rhand -12.2285 -6.25796
rfingers 7.12502
rthumb 13.8368 -35.7777
lclavicle 2.90723e-015 -1.09332e-015
lhumerus -60.4422 -21.9341 93.1559
lradius 90.0562
lwrist -22.213
lhand -15.2379 9.90393
lfingers 7.12502
lthumb 10.9353 39.5992
rfemur -14.6623 5.28083 25.8351
rtibia 44.8007
rfoot -3.87223 -22.4414
rtoes -33.1345
lfemur -36.2326 0.99064 -18.2191
ltibia 81.0931
lfoot 7.09959 21.6187
ltoes -7.93792
626
root 2.7619 15.3803 -27.6891 -166.254 3.7055 -177.879
lowerback 3.3 1.88043 0.759351
upperback 1.36001 2.56985 -0.168438
thorax -0.413231 1.30487 -0.688996
lowerneck -33.6192 1.06673 2.05474
upperneck 38.2232 -1.74678 0.283237
head 21.0122 -0.848998 -0.900115
rclavicle 1.3418e-014 4.67144e-015
rhumerus -37.6364 16.3248 -98.5757
rradius 87.834
rwrist 12.212
rhand -12.0021 -5.90489
rfingers 7.12502
rthumb 14.055 -35.4096
lclavicle 1.3418e-014 4.67144e-015
lhumerus -61.5626 -21.9807 93.1081
lradius 90.7206
lwrist -22.3817
lhand -15.4831 9.6866
lfingers 7.12502
lthumb 10.6987 39.3942
rfemur -12.8039 5.37629 26.054
rtibia 42.8545
rfoot -2.14061 -21.8958
rtoes -33.0722
lfemur -37.5791 0.422738 -17.9958
ltibia 79.7143
lfoot 6.69194 22.3571
ltoes -8.09074
627
root 2.77208 15.4601 -27.975 -166.135 3.3545 -177.811
lowerback 3.04544 2.10885 0.79562
upperback 1.29432 2.86881 -0.265257
thorax -0.326367 1.45307 -0.809224
lowerneck -33.9685 0.752133 1.91678
upperneck 38.334 -2.31308 0.58619
head 21.1827 -1.01994 -0.875204
rclavicle 1.51076e-014 1.49089e-015
rhumerus -37.1884 17.1875 -98.8779
rradius 89.175
rwrist 12.092
rhand -11.8601 -5.53758
rfingers 7.12502
rthumb 14.1919 -35.0328
lclavicle 1.51076e-014 1.49089e-015
lhumerus -62.5777 -22.0608 93.0543
lradius 91.4355
lwrist -22.4173
lhand -15.6644 9.40081
lfingers 7.12502
lthumb 10.5239 39.1174
rfemur -10.9944 5.39374 26.3094
rtibia 40.8239
rfoot -0.24021 -21.2696
rtoes -32.8548
lfemur -38.8346 -0.22337 -17.7187
ltibia 78.0206
lfoot 6.37234 23.0342
ltoes -8.23439
628
root 2.78083 15.5434 -28.2676 -165.99 2.95608 -177.742
lowerback 2.73687 2.28536 0.780046
upperback 1.28232 3.09878 -0.34404
thorax -0.158175 1.568 -0.874209
lowerneck -34.5263 0.498638 1.88423
upperneck 38.4428 -2.81 0.831767
head 21.4116 -1.14789 -0.879788
rclavicle -2.07233e-014 -5.96354e-016
rhumerus -36.7181 18.1567 -99.1026
rradius 90.4601
rwrist 11.8088
rhand -11.7929 -5.16887
rfingers 7.12502
rthumb 14.2566 -34.6595
lclavicle -2.07233e-014 -5.96354e-016
lhumerus -63.4249 -22.0519 92.9105
lradius 92.2031
lwrist -22.2951
lhand -15.8023 9.06134
lfingers 7.12502
lthumb 10.3908 38.7846
rfemur -9.21799 5.30412 26.568
rtibia 38.7335
rfoot 1.80072 -20.5864
rtoes -32.5697
lfemur -39.9514 -0.943531 -17.4123
ltibia 76.0145
lfoot 6.16839 23.6613
ltoes -8.36887
629
root 2.78808 15.6289 -28.5652 -165.833 2.51731 -177.698
lowerback 2.44477 2.46015 0.748405
upperback 1.23066 3.32549 -0.423824
thorax -0.0401896 1.68036 -0.931084
lowerneck -35.0396 0.231077 1.82631
upperneck 38.5487 -3.32341 1.08589
head 21.6318 -1.28458 -0.881317
rclavicle -1.98785e-016 -1.88845e-015
rhumerus -36.4263 19.0378 -99.2452
rradius 91.7293
rwrist 11.4511
rhand -11.7709 -4.80379
rfingers 7.12502
rthumb 14.2777 -34.2929
lclavicle -1.98785e-016 -1.88845e-015
lhumerus -64.3131 -22.0956 92.8299
lradius 93.0092
lwrist -22.0139
lhand -15.918 8.68342
lfingers 7.12502
lthumb 10.2792 38.4122
rfemur -7.48225 5.12126 26.7983
rtibia 36.6098
rfoot 3.99528 -19.8846
rtoes -32.2339
lfemur -40.9224 -1.73628 -17.1025
ltibia 73.7066
lfoot 6.06836 24.2336
ltoes -8.43787
630
root 2.79396 15.7152 -28.8684 -165.656 2.05569 -177.701
lowerback 2.10057 2.64138 0.677913
upperback 1.23144 3.56199 -0.494967
thorax 0.158339 1.79866 -0.951511
lowerneck -35.7338 -0.0904408 1.65506
upperneck 38.6554 -3.85328 1.36899
head 21.9103 -1.43062 -0.853778
rclavicle 3.34952e-014 -2.38542e-015
rhumerus -36.1074 19.853 -99.1989
rradius 92.9491
rwrist 11.0499
rhand -11.7401 -4.47982
rfingers 7.12502
rthumb 14.3075 -33.9669
lclavicle 3.34952e-014 -2.38542e-015
lhumerus -65.0478 -22.2018 92.792
lradius 93.8135
lwrist -21.6739
lhand -16.0201 8.30921
lfingers 7.12502
lthumb 10.1808 38.0429
rfemur -5.79596 4.8501 26.9633
rtibia 34.4712
rfoot 6.35301 -19.1643
rtoes -31.8301
lfemur -41.7369 -2.58912 -16.8154
ltibia 71.1067
lfoot 6.06112 24.7494
ltoes -8.43194
631
root 2.79882 15.8017 -29.1766 -165.469 1.58699 -177.773
lowerback 1.73817 2.87399 0.611937
upperback 1.17246 3.866 -0.602297
thorax 0.310148 1.94959 -1.01075
lowerneck -36.2041 -0.507579 1.33679
upperneck 38.7107 -4.4708 1.71884
head 22.1057 -1.62689 -0.789798
rclavicle 4.96962e-014 -6.16232e-015
rhumerus -36.0199 20.3916 -99.0564
rradius 94.1575
rwrist 10.7051
rhand -11.6873 -4.19583
rfingers 7.12502
rthumb 14.3583 -33.6793
lclavicle 4.96962e-014 -6.16232e-015
lhumerus -65.8976 -22.5098 92.9068
lradius 94.6163
lwrist -21.29
lhand -16.1669 7.93489
lfingers 7.12502
lthumb 10.0392 37.6754
rfemur -4.15555 4.52831 27.0377
rtibia 32.3423
rfoot 8.82886 -18.4737
rtoes -31.3866
lfemur -42.3867 -3.48928 -16.5726
ltibia 68.234
lfoot 6.08768 25.1843
ltoes -8.35477
632
root 2.80303 15.8864 -29.4893 -165.27 1.1425 -177.92
lowerback 1.32957 3.11255 0.48179
upperback 1.09952 4.17813 -0.735696
thorax 0.471508 2.10418 -1.05576
lowerneck -36.5432 -0.943203 0.975578
upperneck 38.7205 -5.08936 2.08101
head 22.2435 -1.83141 -0.711783
rclavicle -1.00883e-014 -6.75868e-015
rhumerus -36.0592 20.8104 -98.8617
rradius 95.3155
rwrist 10.4636
rhand -11.5913 -3.95935
rfingers 7.12502
rthumb 14.4508 -33.4362
lclavicle -1.00883e-014 -6.75868e-015
lhumerus -66.768 -22.8709 93.0704
lradius 95.4088
lwrist -20.9458
lhand -16.349 7.59242
lfingers 7.12502
lthumb 9.86342 37.3414
rfemur -2.56337 4.19124 27.0086
rtibia 30.2521
rfoot 11.4093 -17.7962
rtoes -30.9085
lfemur -42.8692 -4.40652 -16.3884
ltibia 65.1175
lfoot 6.15667 25.5094
ltoes -8.25183
